<?xml version='1.0' encoding='utf-8'?>
<svg xmlns="http://www.w3.org/2000/svg" width="24" height="24" viewBox="0 0 24 24">
  <path d="M 5.1 6.3 H 18.9 A 2.7 2.7 0 0 1 21.6 9 V 16.9 A 2.7 2.7 0 0 1 18.9 19.6 H 5.1 A 2.7 2.7 0 0 1 2.4 16.9 V 9 A 2.7 2.7 0 0 1 5.1 6.3 Z M 10.1 11.188 A 0.85 0.85 0 0 1 11.382 10.455 L 14.457 12.268 A 0.85 0.85 0 0 1 14.457 13.732 L 11.382 15.545 A 0.85 0.85 0 0 1 10.1 14.813 Z" fill="#000000" stroke="none" fill-rule="evenodd" />
  <path d="M 8.2 2.9 L 11.6 5.9 M 15.8 2.9 L 12.4 5.9" fill="none" stroke="#000000" stroke-width="2.2" stroke-linecap="round" stroke-linejoin="round" />
</svg>